HIERARCHY
ROOT Hips
{
  OFFSET 0 89.5177 0.535
  CHANNELS 6 Xposition Yposition Zposition Zrotation Xrotation Yrotation
  JOINT Spine
  {
    OFFSET 12.0259 -0.162855 1.69034e-005
    CHANNELS 3 Zrotation Xrotation Yrotation
    JOINT Spine1
    {
      OFFSET 15.3169 -0.0121922 0
      CHANNELS 3 Zrotation Xrotation Yrotation
      JOINT Spine2
      {
        OFFSET 15.3176 -0.0121908 0
        CHANNELS 3 Zrotation Xrotation Yrotation
        JOINT Neck
        {
          OFFSET 19.9142 1.56338 0
          CHANNELS 3 Zrotation Xrotation Yrotation
          JOINT Head
          {
            OFFSET 6.92651 0 0
            CHANNELS 3 Zrotation Xrotation Yrotation
            End Site
            {
              OFFSET 20.7666 0 0
            }
          }
          JOINT LeftShoulder
          {
            OFFSET -6.20654 0.708824 7.28219
            CHANNELS 3 Zrotation Xrotation Yrotation
            JOINT LeftArm
            {
              OFFSET 14.108 0 -1.52588e-005
              CHANNELS 3 Zrotation Xrotation Yrotation
              JOINT LeftForeArm
              {
                OFFSET 28.5802 0 0
                CHANNELS 3 Zrotation Xrotation Yrotation
                JOINT LeftHand
                {
                  OFFSET 27.092 0 0
                  CHANNELS 3 Zrotation Xrotation Yrotation
                  End Site
                  {
                    OFFSET 9.55928 -0.186424 0.145352
                  }
                }
              }
            }
          }
          JOINT RightShoulder
          {
            OFFSET -6.20654 0.708866 -7.28218
            CHANNELS 3 Zrotation Xrotation Yrotation
            JOINT RightArm
            {
              OFFSET 14.108 0 1.52588e-005
              CHANNELS 3 Zrotation Xrotation Yrotation
              JOINT RightForeArm
              {
                OFFSET 28.5802 0 0
                CHANNELS 3 Zrotation Xrotation Yrotation
                JOINT RightHand
                {
                  OFFSET 27.092 0 0
                  CHANNELS 3 Zrotation Xrotation Yrotation
                  End Site
                  {
                    OFFSET 9.55929 -0.186417 -0.145354
                  }
                }
              }
            }
          }
        }
      }
    }
  }
  JOINT LeftUpLeg
  {
    OFFSET 0.005 -0.535 8.837
    CHANNELS 3 Zrotation Xrotation Yrotation
    JOINT LeftLeg
    {
      OFFSET 39.9035 0 0
      CHANNELS 3 Zrotation Xrotation Yrotation
      JOINT LeftFoot
      {
        OFFSET 39.6689 0 0
        CHANNELS 3 Zrotation Xrotation Yrotation
        JOINT LeftToe
        {
          OFFSET 10.1624 13.6296 0
          CHANNELS 3 Zrotation Xrotation Yrotation
          End Site
          {
            OFFSET 8.38147 0 0
          }
        }
      }
    }
  }
  JOINT RightUpLeg
  {
    OFFSET 0.005 -0.535 -8.837
    CHANNELS 3 Zrotation Xrotation Yrotation
    JOINT RightLeg
    {
      OFFSET 39.9035 0 0
      CHANNELS 3 Zrotation Xrotation Yrotation
      JOINT RightFoot
      {
        OFFSET 39.6689 0 0
        CHANNELS 3 Zrotation Xrotation Yrotation
        JOINT RightToe
        {
          OFFSET 10.1624 13.6296 0
          CHANNELS 3 Zrotation Xrotation Yrotation
          End Site
          {
            OFFSET 8.38147 0 0
          }
        }
      }
    }
  }
}
MOTION
Frames:	11
Frame Time:	0.0333333
192.613 89.2939 -108.387 50.7279 -80.4132 -34.8232 2.43406 -1.40948 -1.26619 4.83865 -2.87066 -2.47236 4.83865 -2.87066 -2.47237 -8.30589e-012 -9.0191e-006 -5.27751e-005 7.67143 -9.79514 8.60005 -178.252 -11.9803 -81.6349 0.649602 -40.5636 18.9844 -18.6621 -3.18055e-015 3.97569e-015 -63.2446 -31.1417 -51.6806 179.998 11.5219 90.0089 39.2466 64.6445 -57.4952 -10.5037 3.18055e-015 -0 -49.7044 26.3225 40.3666 7.09248 -0.475922 175.653 -10.9628 -1.59028e-015 -3.97569e-016 11.7651 6.28079 -11.4096 90 -1.87516e-015 -3.97569e-016 4.70022 -2.87154 176.875 -15.9854 1.59028e-015 5.96354e-016 15.8935 -4.01975 1.87282 90 -6.21202e-017 -0 
192.599 89.2836 -108.441 50.9089 -80.4354 -34.634 2.44181 -1.40518 -1.26994 4.85415 -2.8624 -2.47984 4.85415 -2.8624 -2.47985 -8.30828e-012 -9.0191e-006 -5.27751e-005 7.6094 -9.81994 8.62073 -178.241 -12.0048 -81.6005 0.629798 -40.6046 18.9753 -18.6132 -9.54166e-015 -0 -63.1735 -31.1182 -51.5889 -179.99 11.5191 89.9491 38.9826 64.5634 -57.2818 -10.5201 0 7.95139e-016 -49.5717 26.41 40.3326 7.10948 -0.507806 175.622 -10.9261 0 -0 11.7739 6.24237 -11.2902 90 -1.01945e-015 -1.98785e-016 4.68096 -2.8804 176.862 -16.0263 0 -0 15.9652 -4.02215 1.85361 90 4.22417e-016 -1.59028e-015 
192.596 89.2737 -108.497 51.2165 -80.4289 -34.3168 2.4479 -1.40518 -1.26998 4.8661 -2.86311 -2.48602 4.8661 -2.86311 -2.48603 -8.30828e-012 -9.0191e-006 -5.27751e-005 7.60776 -9.84271 8.65268 -178.242 -12.007 -81.6048 0.649313 -40.5864 19.0264 -18.612 -3.18055e-015 -7.95139e-016 -63.1881 -31.1111 -51.5974 -179.979 11.4734 89.8938 38.8396 64.4762 -57.1255 -10.5303 0 -2.38542e-015 -49.6261 26.3635 40.3197 7.07607 -0.519291 175.641 -10.9991 1.59028e-015 -0 11.8784 6.30074 -11.4705 90 -9.71405e-016 -3.97569e-016 4.69691 -2.88024 176.858 -16.0148 0 -3.97569e-016 15.9881 -3.99818 1.82469 90 4.09993e-016 -0 
192.588 89.2629 -108.569 51.5738 -80.4447 -33.9496 2.45329 -1.4052 -1.27 4.8766 -2.86482 -2.49077 4.8766 -2.86482 -2.49077 -8.30589e-012 -9.0191e-006 -5.27751e-005 7.58983 -9.85228 8.65242 -178.24 -11.9915 -81.5814 0.664496 -40.4914 19.0496 -18.6553 0 3.18055e-015 -63.1565 -31.1343 -51.5719 -179.965 11.436 89.8252 38.6913 64.3468 -56.9611 -10.5595 -3.18055e-015 -0 -49.6233 26.4118 40.3511 7.08293 -0.539847 175.621 -10.9694 1.59028e-015 1.98785e-016 11.9068 6.28492 -11.4073 90 1.08458e-015 1.98785e-016 4.69028 -2.89594 176.85 -16.018 7.95139e-016 3.97569e-016 16.0342 -3.98105 1.80193 90 -9.93923e-017 -3.18055e-015 
192.577 89.2485 -108.647 51.9561 -80.4579 -33.5659 2.45545 -1.40524 -1.27001 4.88082 -2.86688 -2.48982 4.88082 -2.86688 -2.48983 -8.30748e-012 -9.0191e-006 -5.27751e-005 7.64607 -9.8338 8.66454 -178.236 -11.9686 -81.5465 0.571342 -40.4192 18.9991 -18.5827 0 2.38542e-015 -63.1701 -31.1 -51.5607 -179.961 11.4307 89.8013 38.7238 64.2333 -57.0019 -10.5014 0 2.38542e-015 -49.5463 26.3846 40.267 7.07298 -0.587067 175.614 -10.9779 3.18055e-015 9.93923e-016 11.9696 6.27245 -11.3697 90 -3.53949e-015 1.98785e-016 4.66731 -2.93591 176.846 -16.0626 7.95139e-016 1.98785e-016 16.1277 -3.98667 1.7915 90 -2.60905e-016 -3.18055e-015 
192.562 89.2405 -108.742 52.3677 -80.478 -33.1504 2.45432 -1.40532 -1.27001 4.87896 -2.86862 -2.47957 4.87896 -2.86862 -2.47958 -8.30669e-012 -9.0191e-006 -5.27751e-005 7.71862 -9.78776 8.63049 -178.231 -11.9436 -81.5098 0.626811 -40.3839 19.0616 -18.6082 0 7.95139e-016 -63.1878 -31.1325 -51.5918 -179.953 11.4042 89.7606 38.5351 64.1687 -56.8291 -10.3712 6.36111e-015 -7.95139e-016 -49.5314 26.4354 40.2997 7.08272 -0.644607 175.597 -10.9494 -1.59028e-015 -7.95139e-016 11.9978 6.24214 -11.2919 90 9.83004e-016 -3.97569e-016 4.72527 -2.91233 176.848 -15.9542 -7.95139e-016 3.97569e-016 16.0887 -3.93909 1.77554 90 1.2424e-016 1.59028e-015 
192.553 89.2319 -108.857 52.7487 -80.4845 -32.7646 2.45807 -1.40545 -1.26781 4.88828 -2.86935 -2.47501 4.88828 -2.86935 -2.47502 -8.30907e-012 -9.0191e-006 -5.27751e-005 7.75333 -9.76312 8.61775 -178.228 -11.9169 -81.4813 0.672959 -40.4336 19.1228 -18.635 -3.18055e-015 3.97569e-015 -63.128 -31.1415 -51.5401 -179.94 11.3569 89.6931 38.2978 64.0313 -56.5472 -10.3693 6.36111e-015 -1.59028e-015 -49.4594 26.4788 40.3042 7.14247 -0.717939 175.599 -10.8729 0 -0 12.0344 6.24907 -11.2839 90 3.62572e-015 -1.98785e-016 4.7675 -2.96628 176.849 -15.9258 1.59028e-015 3.97569e-016 16.1575 -3.94738 1.79914 90 -4.96962e-017 1.59028e-015 
192.536 89.221 -108.987 53.0207 -80.5158 -32.4906 2.46498 -1.40565 -1.26631 4.89557 -2.86352 -2.46805 4.89557 -2.86352 -2.46805 -8.30669e-012 -9.0191e-006 -5.27751e-005 7.75946 -9.71771 8.58618 -178.235 -11.8975 -81.4977 0.691174 -40.313 19.1513 -18.6849 0 1.59028e-015 -63.1298 -31.1723 -51.5608 -179.932 11.3195 89.6543 38.3098 63.9899 -56.4928 -10.3676 -6.36111e-015 -2.38542e-015 -49.5163 26.438 40.3505 7.19336 -0.681373 175.591 -10.8485 0 -0 12.1057 6.24578 -11.3017 90 -3.40125e-015 -1.98785e-016 4.85453 -2.94839 176.843 -15.8291 -7.95139e-016 -0 16.1725 -3.91333 1.79025 90 -3.72721e-017 3.18055e-015 
192.523 89.2101 -109.129 53.2798 -80.5253 -32.214 2.46864 -1.40909 -1.26496 4.90817 -2.87041 -2.46138 4.90817 -2.87041 -2.46139 -8.30748e-012 -9.0191e-006 -5.27751e-005 7.77837 -9.64637 8.57347 -178.233 -11.8748 -81.4729 0.647909 -40.2344 19.0884 -18.6836 3.18055e-015 -7.15625e-015 -63.0781 -31.1647 -51.5001 -179.932 11.3151 89.6515 38.3874 63.9751 -56.5712 -10.3698 3.18055e-015 7.95139e-016 -49.488 26.4722 40.3475 7.28479 -0.771231 175.567 -10.7761 4.77083e-015 7.95139e-016 12.1365 6.21521 -11.2049 90 -1.7481e-016 -1.98785e-016 4.97072 -2.928 176.834 -15.7258 0 -0 16.1867 -3.86755 1.77713 90 -1.61513e-016 1.59028e-015 
192.504 89.1966 -109.28 53.7269 -80.5427 -31.7362 2.46248 -1.41572 -1.2636 4.8956 -2.88352 -2.46181 4.8956 -2.88352 -2.46181 -8.30589e-012 -9.0191e-006 -5.27751e-005 7.86725 -9.61875 8.55329 -178.232 -11.8588 -81.4552 0.667146 -40.2745 19.0859 -18.7322 6.36111e-015 -4.77083e-015 -63.0491 -31.1584 -51.4675 -179.93 11.3073 89.6435 38.3864 63.95 -56.5591 -10.4303 0 -0 -49.5894 26.463 40.4308 7.35138 -0.8422 175.54 -10.7068 -3.18055e-015 -0 12.1888 6.21668 -11.1969 90 1.95659e-015 1.98785e-016 5.03852 -2.91779 176.808 -15.666 7.95139e-016 -0 16.2209 -3.83771 1.77724 90 -9.93923e-017 -0 
192.49 89.1809 -109.45 54.0627 -80.5451 -31.38 2.45331 -1.42038 -1.26212 4.8771 -2.89266 -2.46222 4.8771 -2.89266 -2.46223 -8.30828e-012 -9.0191e-006 -5.27751e-005 8.05938 -9.63195 8.58563 -178.235 -11.8399 -81.4583 0.682849 -40.3135 19.0787 -18.7886 0 -1.59028e-015 -63.0012 -31.1363 -51.3753 -179.923 11.3242 89.6069 38.215 63.88 -56.4003 -10.5223 -6.36111e-015 3.97569e-015 -49.5889 26.4936 40.4429 7.44391 -0.846976 175.527 -10.6596 1.59028e-015 -0 12.271 6.2275 -11.2219 90 -9.10449e-016 -0 5.16281 -2.89978 176.797 -15.5719 7.95139e-016 1.98785e-016 16.2366 -3.79637 1.78329 90 2.60905e-016 -1.59028e-015 
